<svg width="20" height="17" viewBox="0 0 20 17" fill="none" xmlns="http://www.w3.org/2000/svg">
<path d="M19 9H16.0704C15.5464 9 15.2844 9 15.0633 9.11833C14.8422 9.23665 14.6969 9.45463 14.4063 9.8906L13.5937 11.1094C13.3031 11.5454 13.1578 11.7633 12.9367 11.8817C12.7156 12 12.4536 12 11.9296 12H8.07037C7.5464 12 7.28442 12 7.06333 11.8817C6.84223 11.7633 6.69691 11.5454 6.40627 11.1094L5.59373 9.8906C5.30309 9.45463 5.15777 9.23665 4.93667 9.11833C4.71558 9 4.4536 9 3.92963 9H1" stroke="#33363F" stroke-width="2"/>
<path d="M6.5 5L10 2M10 2L13.5 5M10 2L10 9" stroke="#33363F" stroke-width="2"/>
<path d="M3 6L1.29289 7.70711C1.10536 7.89464 1 8.149 1 8.41421V14C1 15.1046 1.89543 16 3 16H17C18.1046 16 19 15.1046 19 14V8.41421C19 8.149 18.8946 7.89464 18.7071 7.70711L17 6" stroke="#33363F" stroke-width="2" stroke-linecap="round"/>
</svg>
