<svg width="17" height="14" viewBox="0 0 17 14" fill="none" xmlns="http://www.w3.org/2000/svg">
<circle cx="13" cy="4" r="4" fill="#33363F"/>
<path fill-rule="evenodd" clip-rule="evenodd" d="M11 4C11 2.89543 11.8954 2 13 2C14.1046 2 15 2.89543 15 4H11ZM7 4C7 3.29873 7.12031 2.62556 7.34141 2H1C0.447715 2 0 2.44772 0 3C0 3.55228 0.447715 4 1 4H7ZM7.80269 7C8.26707 7.80277 8.91211 8.48797 9.68221 9H1C0.447715 9 0 8.55228 0 8C0 7.44772 0.447715 7 1 7H7.80269ZM1 12C0.447715 12 0 12.4477 0 13C0 13.5523 0.447715 14 1 14H15C15.5523 14 16 13.5523 16 13C16 12.4477 15.5523 12 15 12H1Z" fill="#33363F"/>
</svg>
