<svg width="18" height="18" viewBox="0 0 18 18" fill="none" xmlns="http://www.w3.org/2000/svg">
<path d="M4 8C4 6.11438 4 5.17157 4.58579 4.58579C5.17157 4 6.11438 4 8 4H10C11.8856 4 12.8284 4 13.4142 4.58579C14 5.17157 14 6.11438 14 8V10C14 11.8856 14 12.8284 13.4142 13.4142C12.8284 14 11.8856 14 10 14H8C6.11438 14 5.17157 14 4.58579 13.4142C4 12.8284 4 11.8856 4 10V8Z" stroke="#33363F" stroke-width="2"/>
<rect x="7" y="7" width="4" height="4" rx="1" fill="#33363F"/>
<path d="M7 4V1" stroke="#33363F" stroke-width="2" stroke-linecap="round"/>
<path d="M11 4V1" stroke="#33363F" stroke-width="2" stroke-linecap="round"/>
<path d="M14 7L17 7" stroke="#33363F" stroke-width="2" stroke-linecap="round"/>
<path d="M14 11L17 11" stroke="#33363F" stroke-width="2" stroke-linecap="round"/>
<path d="M7 17V14" stroke="#33363F" stroke-width="2" stroke-linecap="round"/>
<path d="M11 17V14" stroke="#33363F" stroke-width="2" stroke-linecap="round"/>
<path d="M1 7L4 7" stroke="#33363F" stroke-width="2" stroke-linecap="round"/>
<path d="M1 11L4 11" stroke="#33363F" stroke-width="2" stroke-linecap="round"/>
</svg>
