<svg width="20" height="16" viewBox="0 0 20 16" fill="none" xmlns="http://www.w3.org/2000/svg">
<g clip-path="url(#clip0_2002_39)">
<mask id="mask0_2002_39" style="mask-type:luminance" maskUnits="userSpaceOnUse" x="0" y="0" width="16" height="16">
<path d="M0 0H16V16H0V0Z" fill="white"/>
</mask>
<g mask="url(#mask0_2002_39)">
<path d="M12 4C12 5.06087 11.5786 6.07828 10.8285 6.82843C10.0783 7.57857 9.06089 8 8.00002 8C6.93916 8 5.92174 7.57857 5.1716 6.82843C4.42145 6.07828 4.00002 5.06087 4.00002 4C4.00002 2.93913 4.42145 1.92172 5.1716 1.17157C5.92174 0.421427 6.93916 0 8.00002 0C9.06089 0 10.0783 0.421427 10.8285 1.17157C11.5786 1.92172 12 2.93913 12 4ZM0.880024 10.717C0.938761 10.3643 1.0678 10.0271 1.25948 9.72531C1.45115 9.42352 1.70155 9.16334 1.99578 8.96025C2.29001 8.75717 2.62207 8.61531 2.97222 8.54311C3.32237 8.47092 3.68346 8.46986 4.03402 8.54L5.25402 8.784C7.06674 9.14659 8.93331 9.14659 10.746 8.784L11.966 8.54C12.3165 8.47001 12.6775 8.47118 13.0275 8.54345C13.3776 8.61571 13.7095 8.7576 14.0036 8.96067C14.2977 9.16375 14.548 9.42387 14.7397 9.72558C14.9313 10.0273 15.0603 10.3644 15.119 10.717L15.482 12.895C15.5456 13.277 15.5253 13.6682 15.4224 14.0415C15.3195 14.4148 15.1366 14.7613 14.8863 15.0568C14.636 15.3522 14.3244 15.5897 13.9731 15.7526C13.6218 15.9154 13.2393 15.9999 12.852 16H3.14802C2.76079 15.9999 2.37823 15.9154 2.02693 15.7526C1.67563 15.5897 1.36401 15.3522 1.11373 15.0568C0.863453 14.7613 0.680521 14.4148 0.577648 14.0415C0.474775 13.6682 0.454429 13.277 0.518024 12.895L0.880024 10.717Z" fill="#414040"/>
</g>
</g>
<path d="M19 3L15 7" stroke="#222222" stroke-width="1.75" stroke-linecap="round"/>
<path d="M19 7L15 3" stroke="#222222" stroke-width="1.75" stroke-linecap="round"/>
<defs>
<clipPath id="clip0_2002_39">
<rect width="16" height="16" fill="white"/>
</clipPath>
</defs>
</svg>
