<svg width="20" height="19" viewBox="0 0 20 19" fill="none" xmlns="http://www.w3.org/2000/svg">
<path d="M18 2C18.5523 2 19 1.55228 19 1C19 0.447715 18.5523 0 18 0V2ZM3.50001 2L18 2V0L3.50001 0L3.50001 2ZM3.50001 7L11.5 7V5L3.50001 5V7ZM2.00001 3.5C2.00001 2.67157 2.67158 2 3.50001 2L3.50001 0C1.56701 0 7.62939e-06 1.567 7.62939e-06 3.5L2.00001 3.5ZM7.62939e-06 3.5C7.62939e-06 5.433 1.56701 7 3.50001 7V5C2.67158 5 2.00001 4.32843 2.00001 3.5L7.62939e-06 3.5Z" fill="#222222"/>
<path d="M1 9L1 3.5" stroke="#222222" stroke-width="2"/>
<path d="M3 18.5C2.54273 18.5 2.14931 18.5011 1.83594 18.459C1.50824 18.4149 1.19424 18.3153 0.939453 18.0605C0.684663 17.8058 0.585092 17.4918 0.541016 17.1641C0.498884 16.8507 0.5 16.4573 0.5 16L0.5 5.5L17 5.5C17.4573 5.5 17.8507 5.49888 18.1641 5.54102C18.4918 5.58509 18.8058 5.68466 19.0605 5.93945C19.3153 6.19424 19.4149 6.50824 19.459 6.83594C19.5011 7.14931 19.5 7.54273 19.5 8V9.5H16C14.6193 9.5 13.5 10.6193 13.5 12C13.5 13.3807 14.6193 14.5 16 14.5H19.5V16C19.5 16.4573 19.5011 16.8507 19.459 17.1641C19.4149 17.4918 19.3153 17.8058 19.0605 18.0605C18.8058 18.3153 18.4918 18.4149 18.1641 18.459C17.8507 18.5011 17.4573 18.5 17 18.5L3 18.5Z" fill="#222222" stroke="#222222"/>
</svg>
